HIERARCHY
ROOT joint_Root
{
	OFFSET 0.0 0.0 0.0
	CHANNELS 6 Xposition Yposition Zposition Zrotation Xrotation Yrotation 
	JOINT Hips
	{
		OFFSET -17.1583 93.1646 452.98
		CHANNELS 6 Xposition Yposition Zposition Zrotation Xrotation Yrotation 
		JOINT Spine
		{
			OFFSET 15.7357 0.0 0.0
			CHANNELS 6 Xposition Yposition Zposition Zrotation Xrotation Yrotation 
			JOINT Chest
			{
				OFFSET 8.98455 -0.406207 0.0
				CHANNELS 6 Xposition Yposition Zposition Zrotation Xrotation Yrotation 
				JOINT Neck
				{
					OFFSET 16.3773 0.0 0.0
					CHANNELS 6 Xposition Yposition Zposition Zrotation Xrotation Yrotation 
					JOINT Head
					{
						OFFSET 6.45672 0.0 0.0
						CHANNELS 6 Xposition Yposition Zposition Zrotation Xrotation Yrotation 
						End Site
						{
							OFFSET 0.0 0.0 0.0
						}
					}
				}
				JOINT Shoulder_L
				{
					OFFSET 12.9942 -0.242716 4.98039
					CHANNELS 6 Xposition Yposition Zposition Zrotation Xrotation Yrotation 
					JOINT UpperArm_L
					{
						OFFSET 5.34809 0.0 0.0
						CHANNELS 6 Xposition Yposition Zposition Zrotation Xrotation Yrotation 
						JOINT LowerArm_L
						{
							OFFSET 24.3286 1.87007e-05 0.0
							CHANNELS 6 Xposition Yposition Zposition Zrotation Xrotation Yrotation 
							JOINT Hand_L
							{
								OFFSET 22.2916 0.0 0.0
								CHANNELS 6 Xposition Yposition Zposition Zrotation Xrotation Yrotation 
								End Site
								{
									OFFSET 0.0 0.0 0.0
								}
							}
						}
					}
				}
				JOINT Shoulder_R
				{
					OFFSET 12.9945 -0.242716 -4.98039
					CHANNELS 6 Xposition Yposition Zposition Zrotation Xrotation Yrotation 
					JOINT UpperArm_R
					{
						OFFSET -5.34813 0.0 0.0
						CHANNELS 6 Xposition Yposition Zposition Zrotation Xrotation Yrotation 
						JOINT LowerArm_R
						{
							OFFSET -24.3289 0.000322201 0.0
							CHANNELS 6 Xposition Yposition Zposition Zrotation Xrotation Yrotation 
							JOINT Hand_R
							{
								OFFSET -22.2915 -0.000108084 0.0
								CHANNELS 6 Xposition Yposition Zposition Zrotation Xrotation Yrotation 
								End Site
								{
									OFFSET 0.0 0.0 0.0
								}
							}
						}
					}
				}
			}
		}
		JOINT UpperLeg_L
		{
			OFFSET -2.19248 -6.46944 0.0
			CHANNELS 6 Xposition Yposition Zposition Zrotation Xrotation Yrotation 
			JOINT LowerLeg_L
			{
				OFFSET 39.0811 0.0 -1.23785e-05
				CHANNELS 6 Xposition Yposition Zposition Zrotation Xrotation Yrotation 
				JOINT Foot_L
				{
					OFFSET 40.9854 0.0 -1.26872e-05
					CHANNELS 6 Xposition Yposition Zposition Zrotation Xrotation Yrotation 
					JOINT Toes_L
					{
						OFFSET 11.7543 0.0 0.0
						CHANNELS 6 Xposition Yposition Zposition Zrotation Xrotation Yrotation 
						End Site
						{
							OFFSET 0.0 0.0 0.0
						}
					}
				}
			}
		}
		JOINT UpperLeg_R
		{
			OFFSET -2.19251 6.46944 0.0
			CHANNELS 6 Xposition Yposition Zposition Zrotation Xrotation Yrotation 
			JOINT LowerLeg_R
			{
				OFFSET -39.0811 -0.00228153 -0.0401928
				CHANNELS 6 Xposition Yposition Zposition Zrotation Xrotation Yrotation 
				JOINT Foot_R
				{
					OFFSET -40.9854 0.0 0.0
					CHANNELS 6 Xposition Yposition Zposition Zrotation Xrotation Yrotation 
					JOINT Toes_R
					{
						OFFSET -11.7543 0.0 0.0
						CHANNELS 6 Xposition Yposition Zposition Zrotation Xrotation Yrotation 
						End Site
						{
							OFFSET 0.0 0.0 0.0
						}
					}
				}
			}
		}
	}
}
MOTION
Frames:	7
Frame Time:	0.0333333
0.000000 0.000000 0.000000 0.000000 0.000000 -0.000000 -1.335500 92.803100 1.783540 87.723000 0.364993 2.767080 15.735700 0.000005 -0.000001 91.994300 86.904800 -90.064900 8.984550 -0.406207 -0.000000 -1.577360 0.058141 3.858610 16.377300 -0.000001 -0.000001 3.301750 2.301680 0.806762 6.456720 -0.000001 -0.000000 1.832190 3.081990 0.112380 12.994200 -0.242716 4.980390 -92.595100 8.148320 -72.266800 5.348090 -0.000007 -0.000001 -72.667000 23.258700 -0.906445 24.328600 0.000019 0.000005 10.715700 30.133100 -20.655900 22.291600 -0.000001 0.000005 -6.658700 5.168340 3.484400 12.994500 -0.242716 -4.980390 88.775500 4.654750 -75.243700 -5.348130 -0.000001 -0.000004 -71.352200 26.751800 -5.031850 -24.328900 0.000322 -0.000009 1.201510 4.591580 -14.693500 -22.291500 -0.000108 -0.000004 0.641887 5.258360 1.210890 -2.192480 -6.469440 -0.000000 -171.480000 -8.481590 2.008920 39.081100 -0.000007 -0.000012 0.027108 -0.094513 16.004000 40.985400 -0.000006 -0.000013 -0.655935 17.332800 -70.137900 11.754300 -0.000000 0.000003 -0.001447 0.189199 -8.901470 -2.192510 6.469440 -0.000001 176.939000 9.388800 -176.873000 -39.081100 -0.002282 -0.040193 0.008804 -0.022384 13.735000 -40.985400 0.000008 0.000006 -6.419010 10.742900 -68.381900 -11.754300 -0.000006 -0.000006 -0.012174 0.286892 -4.912960
0.000000 0.000000 0.000000 0.000000 0.000000 -0.000000 -1.472430 92.852600 1.829040 87.714200 0.688013 2.309460 15.735700 0.000005 -0.000001 93.133800 87.009500 -91.084300 8.984550 -0.406207 -0.000000 -1.793460 0.156004 4.100570 16.377300 -0.000001 -0.000001 3.111590 2.079800 1.727300 6.456720 -0.000001 -0.000000 0.787173 3.075770 0.971401 12.994200 -0.242716 4.980390 -92.720200 8.414160 -72.011700 5.348090 -0.000007 -0.000001 -70.540500 20.886400 -2.931340 24.328600 0.000019 0.000005 9.987290 32.951900 -17.941700 22.291600 -0.000001 0.000005 -10.261700 5.242290 1.601440 12.994500 -0.242716 -4.980390 88.759500 4.686610 -75.156500 -5.348130 -0.000001 -0.000004 -71.066800 26.244400 -4.828700 -24.328900 0.000322 -0.000009 1.210810 4.639280 -14.656900 -22.291500 -0.000108 -0.000004 0.659839 5.259270 1.186650 -2.192480 -6.469440 -0.000000 -171.353000 -8.765270 1.819590 39.081100 -0.000007 -0.000012 0.025918 -0.093899 15.430600 40.985400 -0.000006 -0.000013 -0.790971 17.891600 -70.005400 11.754300 -0.000000 0.000003 -0.001506 0.189982 -8.869630 -2.192510 6.469440 -0.000001 177.044000 9.831250 -177.049000 -39.081100 -0.002282 -0.040193 0.004310 -0.004152 13.241000 -40.985400 0.000008 0.000006 -6.928990 10.784400 -67.912600 -11.754300 -0.000006 -0.000006 -0.011556 0.282585 -5.089390
0.000000 0.000000 0.000000 0.000000 0.000000 -0.000000 -1.651880 92.901500 1.854570 87.721400 1.059910 1.816750 15.735700 0.000005 -0.000001 94.314200 87.137900 -92.137100 8.984550 -0.406207 -0.000000 -2.058910 0.243937 4.357880 16.377300 -0.000001 -0.000001 2.945430 1.903610 2.606100 6.456720 -0.000001 -0.000000 -0.494318 3.096620 2.515930 12.994200 -0.242716 4.980390 -92.753300 8.433050 -71.844300 5.348090 -0.000007 -0.000001 -67.474400 17.756900 -5.639740 24.328600 0.000019 0.000005 8.713780 36.346500 -14.502100 22.291600 -0.000001 0.000005 -15.282200 5.314380 -0.372013 12.994500 -0.242716 -4.980390 88.690200 4.909890 -75.043000 -5.348130 -0.000001 -0.000004 -70.600700 25.587200 -4.518160 -24.328900 0.000322 -0.000009 1.255710 4.813160 -14.652400 -22.291500 -0.000108 -0.000004 0.709943 5.260870 1.144020 -2.192480 -6.469440 -0.000000 -171.209000 -9.235290 1.588960 39.081100 -0.000007 -0.000012 0.023308 -0.088086 14.821600 40.985400 -0.000006 -0.000013 -0.929132 18.655300 -69.782100 11.754300 -0.000000 0.000003 -0.001538 0.190409 -8.852260 -2.192510 6.469440 -0.000001 177.219000 10.104400 -177.277000 -39.081100 -0.002282 -0.040193 0.002106 0.005418 12.774000 -40.985400 0.000008 0.000006 -7.287480 10.582100 -67.575000 -11.754300 -0.000006 -0.000006 -0.011749 0.283942 -5.033790
0.000000 0.000000 0.000000 0.000000 0.000000 -0.000000 -1.860160 92.941900 1.920630 87.713700 1.506430 1.361640 15.735700 0.000005 -0.000001 93.970100 87.275100 -91.585700 8.984550 -0.406207 -0.000000 -2.328270 0.167300 4.771750 16.377300 -0.000001 -0.000001 2.849190 1.842670 3.468370 6.456720 -0.000001 -0.000000 -1.905640 3.193050 4.263010 12.994200 -0.242716 4.980390 -92.692700 8.185800 -71.721400 5.348090 -0.000007 -0.000001 -63.501500 13.479200 -8.540920 24.328600 0.000019 0.000005 6.836220 38.532800 -10.894300 22.291600 -0.000001 0.000005 -20.422600 5.346980 -1.297200 12.994500 -0.242716 -4.980390 88.624600 5.128580 -74.965500 -5.348130 -0.000001 -0.000004 -69.977300 24.865400 -4.270630 -24.328900 0.000322 -0.000009 1.226950 4.739540 -14.543600 -22.291500 -0.000108 -0.000004 0.630376 5.262040 1.112490 -2.192480 -6.469440 -0.000000 -171.028000 -9.640180 1.395020 39.081100 -0.000007 -0.000012 0.020895 -0.082366 14.235100 40.985400 -0.000006 -0.000013 -1.102350 19.400500 -69.620100 11.754300 -0.000000 0.000003 -0.001557 0.190655 -8.842240 -2.192510 6.469440 -0.000001 177.469000 10.404800 -177.420000 -39.081100 -0.002282 -0.040193 0.000655 0.012320 12.273900 -40.985400 0.000008 0.000006 -7.336060 10.263900 -67.307900 -11.754300 -0.000006 -0.000006 -0.011447 0.281813 -5.120970
0.000000 0.000000 0.000000 0.000000 0.000000 -0.000000 -2.098800 93.005300 1.958990 87.765900 1.898870 0.838433 15.735700 0.000005 -0.000001 92.604600 87.439400 -89.981700 8.984550 -0.406207 -0.000000 -2.644560 -0.005480 5.245640 16.377300 -0.000001 -0.000001 2.548190 1.874480 4.251720 6.456720 -0.000001 -0.000000 -3.074220 3.331930 6.417610 12.994200 -0.242716 4.980390 -92.483300 7.469500 -71.550400 5.348090 -0.000007 -0.000001 -59.106900 6.637320 -11.574400 24.328600 0.000019 0.000005 4.579710 40.241700 -7.068510 22.291600 -0.000001 0.000005 -23.382600 5.345990 -1.254700 12.994500 -0.242716 -4.980390 88.545500 5.376210 -74.837200 -5.348130 -0.000001 -0.000004 -69.341800 23.613800 -4.129280 -24.328900 0.000322 -0.000009 1.176220 4.693780 -14.097000 -22.291500 -0.000108 -0.000004 0.968185 5.264730 1.039700 -2.192480 -6.469440 -0.000000 -170.897000 -10.279200 1.302470 39.081100 -0.000007 -0.000012 0.018732 -0.079191 13.308500 40.985400 -0.000006 -0.000013 -1.349770 20.258800 -69.313100 11.754300 -0.000000 0.000003 -0.001631 0.191631 -8.802590 -2.192510 6.469440 -0.000001 177.728000 10.638700 -177.628000 -39.081100 -0.002282 -0.040193 -0.000371 0.017899 11.701600 -40.985400 0.000008 0.000006 -7.593910 9.698720 -66.993200 -11.754300 -0.000006 -0.000006 -0.011146 0.279676 -5.208490
0.000000 0.000000 0.000000 0.000000 0.000000 -0.000000 -2.337730 93.048500 1.981230 87.839600 2.204670 0.243939 15.735700 0.000005 -0.000001 90.456000 87.619900 -87.525900 8.984550 -0.406207 -0.000000 -2.993100 -0.237030 5.854880 16.377300 -0.000001 -0.000001 2.199810 1.985200 5.063910 6.456720 -0.000001 -0.000000 -4.183590 3.539900 8.394070 12.994200 -0.242716 4.980390 -92.179400 6.424270 -71.215500 5.348090 -0.000007 -0.000001 -54.459500 -1.719710 -14.608900 24.328600 0.000019 0.000005 2.701480 41.400600 -4.081130 22.291600 -0.000001 0.000005 -22.326300 5.307180 -0.144650 12.994500 -0.242716 -4.980390 88.500800 5.470500 -74.648400 -5.348130 -0.000001 -0.000004 -68.808400 21.974000 -4.048630 -24.328900 0.000322 -0.000009 1.105510 4.577630 -13.605500 -22.291500 -0.000108 -0.000004 1.465140 5.260560 1.151900 -2.192480 -6.469440 -0.000000 -170.791000 -10.928200 1.038920 39.081100 -0.000007 -0.000012 0.014607 -0.065616 12.550300 40.985400 -0.000006 -0.000013 -1.774680 21.158000 -68.880500 11.754300 -0.000000 0.000003 -0.002006 0.196419 -8.607870 -2.192510 6.469440 -0.000001 178.030000 10.638100 -178.066000 -39.081100 -0.002282 -0.040193 0.000869 0.012218 11.418200 -40.985400 0.000008 0.000006 -7.524290 9.037300 -66.998000 -11.754300 -0.000006 -0.000006 -0.011527 0.282383 -5.097660
0.000000 0.000000 0.000000 0.000000 0.000000 -0.000000 -2.547470 93.080000 1.985580 87.994300 2.371950 -0.213587 15.735700 0.000005 -0.000001 88.625900 87.731200 -85.341900 8.984550 -0.406207 -0.000000 -3.209190 -0.423012 6.557340 16.377300 -0.000001 -0.000001 1.735050 2.146110 5.782450 6.456720 -0.000001 -0.000000 -5.076830 3.655350 10.303400 12.994200 -0.242716 4.980390 -91.806000 5.203410 -70.827500 5.348090 -0.000007 -0.000001 -49.583500 -9.968190 -17.504600 24.328600 0.000019 0.000005 1.926000 41.682800 -2.894740 22.291600 -0.000001 0.000005 -18.630700 5.254500 1.288750 12.994500 -0.242716 -4.980390 88.447600 5.606150 -74.494600 -5.348130 -0.000001 -0.000004 -68.033200 20.305600 -3.928560 -24.328900 0.000322 -0.000009 1.040370 4.410970 -13.297900 -22.291500 -0.000108 -0.000004 1.943430 5.259970 1.168280 -2.192480 -6.469440 -0.000000 -170.744000 -11.417200 0.789175 39.081100 -0.000007 -0.000012 0.002524 -0.011901 11.974400 40.985400 -0.000006 -0.000013 -2.931810 21.843400 -67.927600 11.754300 -0.000000 0.000003 -0.001612 0.191372 -8.813120 -2.192510 6.469440 -0.000001 178.178000 10.619100 -178.472000 -39.081100 -0.002282 -0.040193 0.003385 -0.000243 11.321200 -40.985400 0.000008 0.000006 -7.006570 8.706780 -67.166300 -11.754300 -0.000006 -0.000006 -0.011365 0.281237 -5.144560
